<?xml version="1.0" standalone="no"?>
<!DOCTYPE svg PUBLIC "-//W3C//DTD SVG 20010904//EN"
 "http://www.w3.org/TR/2001/REC-SVG-20010904/DTD/svg10.dtd">
<svg version="1.0" xmlns="http://www.w3.org/2000/svg"
 width="300.000000pt" height="300.000000pt" viewBox="0 0 300.000000 300.000000"
 preserveAspectRatio="xMidYMid meet">
<metadata>
Created by potrace 1.14, written by Peter Selinger 2001-2017
</metadata>
<g transform="translate(0.000000,300.000000) scale(0.100000,-0.100000)"
fill="#000000" stroke="none">
<path d="M2076 2628 c-156 -302 -342 -648 -348 -648 -5 0 -66 119 -137 264
-71 145 -134 267 -139 270 -30 18 -8 -33 119 -287 77 -153 137 -282 134 -287
-4 -6 -257 -10 -677 -10 l-671 0 -39 -40 -38 -41 0 -555 0 -555 26 -34 c14
-18 33 -37 42 -42 9 -4 177 -10 372 -13 l354 -5 14 -48 13 -47 382 2 381 3 17
45 17 45 346 5 346 5 32 33 33 32 3 566 2 566 -39 39 -39 39 -416 0 c-319 0
-416 3 -416 12 0 7 86 176 190 375 105 200 190 368 190 373 0 26 -20 3 -54
-62z m-1106 -787 c-47 -10 -100 -25 -117 -35 -18 -9 -35 -16 -38 -16 -3 1 -26
-8 -51 -20 -26 -11 -50 -20 -54 -20 -14 0 -153 -103 -191 -143 -41 -41 -113
-155 -122 -192 -2 -11 -5 68 -6 175 -2 285 -23 269 379 269 l285 -1 -85 -17z
m993 8 c26 -7 44 -21 57 -42 18 -29 20 -51 20 -222 l0 -190 -35 73 c-62 130
-195 245 -359 311 -52 21 -98 36 -100 33 -3 -3 -11 0 -18 6 -7 5 -30 13 -51
17 -20 4 -40 11 -43 16 -8 13 483 11 529 -2z m568 -12 c14 -9 31 -29 37 -43 9
-18 12 -165 12 -510 0 -435 -2 -489 -17 -514 -26 -45 -51 -50 -229 -50 l-166
0 -34 34 -34 34 0 494 c0 447 2 496 17 518 37 54 59 59 238 57 125 -2 154 -5
176 -20z m-1056 -27 c39 -12 77 -25 85 -28 8 -3 20 -6 26 -7 55 -12 54 -9 54
-126 l0 -109 -37 0 c-21 0 -45 -4 -53 -10 -9 -5 -19 -5 -26 1 -7 6 -34 9 -61
7 l-48 -3 -3 -49 c-4 -68 4 -96 28 -96 16 0 20 7 20 33 0 51 11 78 29 75 9 -1
22 1 29 5 8 5 12 3 12 -7 0 -21 19 -20 41 0 12 10 25 14 36 9 16 -6 15 -8 -7
-17 -58 -22 -75 -35 -78 -55 -4 -30 30 -47 79 -39 l39 6 0 -170 0 -169 -127
-3 -128 -3 -3 -151 -3 -151 -38 -11 c-75 -23 -368 -3 -424 29 -10 5 -22 7 -27
4 -6 -4 -11 52 -12 137 l-3 143 -117 3 -118 3 0 -80 c0 -44 -4 -82 -9 -85 -10
-7 -161 136 -161 152 0 7 30 12 83 14 l82 3 2 240 c2 132 3 273 3 313 0 60 3
74 18 79 9 4 19 9 22 12 12 15 171 82 230 97 111 28 159 33 330 30 139 -2 176
-6 235 -26z m133 -376 c-9 -9 -21 -13 -27 -9 -16 10 -3 25 22 25 20 0 20 -1 5
-16z m-1207 -278 c0 -3 16 -37 35 -76 39 -76 119 -158 209 -215 57 -37 175
-90 220 -100 17 -4 39 -11 50 -15 11 -5 47 -13 80 -18 44 -7 -20 -10 -243 -11
l-304 -1 -29 29 -29 29 0 198 c0 108 3 195 6 192 3 -4 5 -9 5 -12z m1628 -379
c-23 -54 -42 -57 -346 -56 -269 0 -276 1 -223 16 30 8 62 16 70 18 16 2 33 8
95 32 211 82 324 186 401 368 6 12 10 -52 12 -165 2 -124 -1 -194 -9 -213z
m-129 240 c0 -36 -5 -48 -32 -73 -49 -45 -185 -124 -214 -124 -2 0 -4 54 -4
119 l0 119 125 1 125 2 0 -44z m-807 -304 c-7 -2 -19 -2 -25 0 -7 3 -2 5 12 5
14 0 19 -2 13 -5z"/>
<path d="M2272 1757 c-43 -46 -14 -117 47 -117 32 0 71 39 71 70 0 10 -9 29
-21 44 -26 33 -68 34 -97 3z"/>
<path d="M2289 1586 c-52 -26 -49 -112 4 -130 33 -12 56 -1 74 36 28 55 -26
120 -78 94z"/>
<path d="M2271 1384 c-12 -15 -21 -37 -21 -49 0 -29 37 -75 60 -75 25 0 50 37
50 75 0 38 -25 75 -50 75 -10 0 -28 -12 -39 -26z"/>
<path d="M2460 866 c-15 -19 -9 -56 12 -69 34 -22 66 41 36 71 -16 16 -33 15
-48 -2z"/>
<path d="M836 1578 c-7 -13 -26 -56 -41 -96 -23 -58 -26 -75 -16 -85 10 -9 15
-8 27 7 8 11 14 26 14 33 0 8 13 13 39 13 33 0 40 -4 51 -30 13 -31 37 -40 46
-17 2 7 -11 51 -31 97 -45 105 -62 120 -89 78z m38 -64 c10 -25 7 -31 -14 -37
-22 -6 -23 -3 -14 31 7 26 19 29 28 6z"/>
<path d="M974 1515 c-8 -32 1 -92 17 -111 7 -9 28 -13 63 -11 l51 3 3 73 c3
65 1 72 -15 69 -14 -2 -19 -14 -21 -50 -3 -47 -25 -79 -42 -62 -5 5 -10 31
-12 59 -2 38 -7 51 -20 53 -12 2 -19 -5 -24 -23z"/>
<path d="M1145 1532 c-3 -3 -5 -34 -5 -69 0 -49 4 -65 16 -70 22 -8 34 14 34
65 0 39 2 42 28 42 26 0 28 -3 24 -29 -6 -40 34 -81 78 -81 38 0 80 39 80 75
0 58 -96 101 -131 59 -11 -14 -13 -14 -21 0 -8 15 -90 21 -103 8z m203 -58 c4
-38 -20 -63 -43 -44 -15 13 -21 61 -8 74 4 4 16 6 28 4 14 -2 21 -12 23 -34z"/>
<path d="M1047 1264 c-17 -17 -6 -34 23 -34 l29 0 3 -82 c3 -75 5 -83 23 -83
18 0 20 8 23 83 l3 82 33 0 c32 0 34 -2 60 -74 29 -78 46 -102 69 -93 18 7 87
176 80 195 -12 30 -39 4 -64 -61 l-26 -69 -24 69 -24 68 -100 3 c-55 2 -104 0
-108 -4z"/>
</g>
</svg>
